<svg xmlns="http://www.w3.org/2000/svg" viewBox="0 0 64 64"><g id="_23-Turn_right" data-name="23-Turn right"><polygon points="59 41 59 47 43 63 27 63 27 59 40 59 59 41" style="fill:#2a84c9"/><path d="M39.67,47l-4.22,4H13a8,8,0,0,1-8-8V39a8,8,0,0,0,8,8Z" style="fill:#1c69a1"/><polygon points="39.67 35 34 35 27 28 27 23 39.67 35" style="fill:#2a84c9"/><rect x="5" y="17" width="12" height="3" style="fill:#319aeb"/><rect x="5" y="5" width="12" height="3" style="fill:#48befd"/><rect x="5" y="1" width="12" height="4" style="fill:#8ceaff"/><rect x="5" y="12" width="12" height="5" style="fill:#6bdcff"/><path d="M35.45,51l4.22-4H13a8,8,0,0,1-8-8V24H17v9a2.006,2.006,0,0,0,2,2H39.67L27,23H40L59,41,40,59H27Z" style="fill:#48befd"/><polygon points="27 63 27 59 40 59 43 63 27 63" style="fill:#1c69a1"/><path d="M12,49a2,2,0,0,1,2-2H13a8,8,0,0,1-8-8v4a8,8,0,0,0,8,8h1A2,2,0,0,1,12,49Z" style="fill:#2a84c9"/><path d="M17,5H10.5A1.5,1.5,0,0,0,9,6.5H9A1.5,1.5,0,0,0,10.5,8H17Z" style="fill:#6bdcff"/><path d="M17,17H10.5A1.5,1.5,0,0,0,9,18.5H9A1.5,1.5,0,0,0,10.5,20H17Z" style="fill:#48befd"/><path d="M39.67,35l-6.6-6.25a2.376,2.376,0,0,1-2.081,3.24L34,35Z" style="fill:#1c69a1"/><path d="M14.5,26A2.5,2.5,0,0,0,12,28.5V34a5,5,0,0,0,5,5H36a2,2,0,0,0,0-4H19a2.006,2.006,0,0,1-2-2V28.5A2.5,2.5,0,0,0,14.5,26Z" style="fill:#6bdcff"/><path d="M53.925,41h0a2.221,2.221,0,0,0,2.15-2.771L40,23H35L52.346,40.346A2.233,2.233,0,0,0,53.925,41Z" style="fill:#6bdcff"/><path d="M40,23H27L39.667,35H19a2,2,0,0,1-2-2V24H5V39a8,8,0,0,0,8,8H39.667L27,59H40L59,41Z" style="fill:none;stroke:#000;stroke-linejoin:round;stroke-width:2px"/><rect x="5" y="12" width="12" height="5" style="fill:none;stroke:#000;stroke-linejoin:round;stroke-width:2px"/><rect x="5" y="1" width="12" height="4" style="fill:none;stroke:#000;stroke-linejoin:round;stroke-width:2px"/><polyline points="59 41 59 47 43 63 27 63 27 59" style="fill:none;stroke:#000;stroke-linejoin:round;stroke-width:2px"/><line x1="29" y1="51" x2="31" y2="51" style="fill:none;stroke:#000;stroke-linejoin:round;stroke-width:2px"/><path d="M5,32V43a8,8,0,0,0,8,8H27" style="fill:none;stroke:#000;stroke-linejoin:round;stroke-width:2px"/><polyline points="27 23 27 28 32 33" style="fill:none;stroke:#000;stroke-linejoin:round;stroke-width:2px"/><polyline points="5 17 5 20 17 20 17 17" style="fill:none;stroke:#000;stroke-linejoin:round;stroke-width:2px"/><polyline points="5 5 5 8 17 8 17 5" style="fill:none;stroke:#000;stroke-linejoin:round;stroke-width:2px"/></g></svg>